<svg preserveAspectRatio="none" width="100%" height="100%" overflow="visible" style="display: block;" viewBox="0 0 105 104.999" fill="none" xmlns="http://www.w3.org/2000/svg">
<g id="geometric">
<path id="Vector" d="M17.6364 18.421C18.0134 18.4166 18.3836 18.3209 18.7154 18.1421C19.0471 17.9634 19.3304 17.7069 19.5408 17.3948C19.7513 17.0826 19.8827 16.7242 19.9238 16.3501C19.9648 15.9761 19.9142 15.5977 19.7764 15.2475C19.6386 14.8973 19.4176 14.5858 19.1325 14.3396C18.8474 14.0934 18.5067 13.9201 18.1396 13.8344C17.7725 13.7487 17.3901 13.7532 17.0252 13.8476C16.6603 13.942 16.3238 14.1234 16.0446 14.3762C15.7119 14.7001 15.4823 15.1148 15.3846 15.5684C15.2869 16.0219 15.3255 16.4942 15.4954 16.926C15.6653 17.3577 15.9591 17.7299 16.34 17.9958C16.7208 18.2618 17.1718 18.4096 17.6364 18.421Z" fill="var(--fill-0, #151B22)"/>
<path id="Vector_2" d="M4.16897 37.6557C4.75096 37.8559 5.3886 37.8189 5.94339 37.5526C6.49817 37.2863 6.92526 36.8123 7.1319 36.2335C7.33853 35.6547 7.308 35.0179 7.04695 34.4615C6.7859 33.905 6.31541 33.4739 5.7377 33.2617C5.15571 33.0614 4.51806 33.0985 3.96328 33.3648C3.4085 33.631 2.9814 34.1051 2.77477 34.6839C2.56813 35.2626 2.59866 35.8994 2.85971 36.4559C3.12076 37.0123 3.59125 37.4435 4.16897 37.6557Z" fill="var(--fill-0, #151B22)"/>
<path id="Vector_3" d="M2.03913 49.156C2.65165 49.217 3.26363 49.0351 3.74299 48.6497C4.22235 48.2642 4.53065 47.7061 4.60135 47.0958C4.67205 46.4855 4.49949 45.8719 4.1209 45.3874C3.74231 44.903 3.18805 44.5865 2.57775 44.5063C1.96522 44.4454 1.35324 44.6273 0.873885 45.0127C0.394526 45.3981 0.0862282 45.9562 0.0155272 46.5666C-0.0551738 47.1769 0.117392 47.7905 0.495982 48.275C0.874572 48.7594 1.42883 49.0759 2.03913 49.156Z" fill="var(--fill-0, #151B22)"/>
<path id="Vector_4" d="M4.26589 67.6219C3.68768 67.8399 3.21909 68.2769 2.96203 68.838C2.70497 69.399 2.68024 70.0386 2.89321 70.6178C3.10619 71.1969 3.53964 71.6687 4.0993 71.9305C4.65896 72.1923 5.29955 72.223 5.88176 72.0159C6.45997 71.7979 6.92856 71.3608 7.18562 70.7998C7.44268 70.2388 7.46741 69.5991 7.25443 69.02C7.04146 68.4409 6.60801 67.9691 6.04835 67.7073C5.48869 67.4455 4.8481 67.4148 4.26589 67.6219Z" fill="var(--fill-0, #151B22)"/>
<path id="Vector_5" d="M4.68638 58.2019C4.59967 57.5953 4.27836 57.0467 3.79128 56.6737C3.3042 56.3007 2.69012 56.1329 2.08062 56.2064C1.47112 56.2798 0.914682 56.5887 0.530553 57.0667C0.146425 57.5447 -0.0348382 58.1538 0.0256033 58.7636C0.112311 59.3702 0.433629 59.9188 0.920705 60.2918C1.40778 60.6648 2.02186 60.8326 2.63136 60.7591C3.24087 60.6857 3.7973 60.3769 4.18143 59.8989C4.56556 59.4209 4.74682 58.8117 4.68638 58.2019Z" fill="var(--fill-0, #151B22)"/>
<path id="Vector_6" d="M26.9807 11.4082C27.3359 11.4044 27.6856 11.3195 28.003 11.16C28.3203 11.0006 28.5969 10.7708 28.8115 10.4882C29.0262 10.2056 29.1732 9.87778 29.2414 9.52976C29.3096 9.18175 29.2971 8.82277 29.2049 8.48032C29.1126 8.13787 28.9432 7.82101 28.7094 7.554C28.4756 7.28698 28.1837 7.07689 27.856 6.93981C27.5284 6.80272 27.1736 6.74227 26.8189 6.76308C26.4643 6.78389 26.1191 6.88541 25.8098 7.05988C25.3599 7.3136 25.0074 7.70941 24.8077 8.18502C24.6079 8.66064 24.5723 9.18904 24.7064 9.68707C24.8405 10.1851 25.1367 10.6245 25.5485 10.9361C25.9602 11.2476 26.464 11.4137 26.9807 11.4082Z" fill="var(--fill-0, #151B22)"/>
<path id="Vector_7" d="M90.7214 22.3239C91.0936 22.3209 91.4596 22.2287 91.7887 22.0551C92.1179 21.8816 92.4004 21.6318 92.6127 21.3266C92.825 21.0214 92.9609 20.6699 93.0088 20.3015C93.0567 19.933 93.0154 19.5585 92.8882 19.2094C92.7611 18.8602 92.5518 18.5466 92.278 18.2949C92.0042 18.0432 91.6739 17.8608 91.3148 17.7629C90.9557 17.6651 90.5784 17.6547 90.2144 17.7326C89.8505 17.8105 89.5106 17.9745 89.2233 18.2107C88.8522 18.5158 88.585 18.9282 88.4584 19.3911C88.3318 19.854 88.352 20.3447 88.5162 20.7956C88.6805 21.2466 88.9807 21.6357 89.3756 21.9094C89.7705 22.183 90.2406 22.3279 90.7214 22.3239Z" fill="var(--fill-0, #151B22)"/>
<path id="Vector_8" d="M8.90125 26.999C9.42272 27.3205 10.0496 27.4255 10.6476 27.2914C11.2457 27.1574 11.7674 26.795 12.1011 26.2819C12.4349 25.7687 12.5541 25.1456 12.4332 24.5458C12.3124 23.946 11.9611 23.4173 11.4545 23.0728C10.9331 22.7513 10.3062 22.6463 9.70814 22.7804C9.11009 22.9144 8.58836 23.2767 8.25464 23.7899C7.92092 24.3031 7.80173 24.9262 7.92258 25.526C8.04343 26.1258 8.39472 26.6545 8.90125 26.999Z" fill="var(--fill-0, #151B22)"/>
<path id="Vector_9" d="M80.815 13.9099C81.5849 13.9069 82.3221 13.5991 82.8649 13.0541C83.4077 12.5092 83.7117 11.7715 83.7102 11.0031C83.7087 10.2346 83.4018 9.49818 82.8568 8.95534C82.3119 8.41251 81.5734 8.10763 80.8035 8.10763C80.0336 8.10763 79.2952 8.41251 78.7502 8.95534C78.2053 9.49818 77.8984 10.2346 77.8969 11.0031C77.8954 11.7715 78.1994 12.5092 78.7422 13.0541C79.285 13.5991 80.0222 13.9069 80.7921 13.9099H80.815Z" fill="var(--fill-0, #151B22)"/>
<path id="Vector_10" d="M98.9913 41.1624C99.1485 41.7545 99.5317 42.2618 100.059 42.5755C100.586 42.8892 101.215 42.9845 101.812 42.841C102.409 42.6975 102.925 42.3266 103.252 41.8077C103.578 41.2887 103.687 40.663 103.557 40.0643C103.4 39.4721 103.017 38.9649 102.49 38.6512C101.962 38.3374 101.333 38.2421 100.736 38.3856C100.14 38.5291 99.623 38.9 99.2968 39.419C98.9707 39.938 98.861 40.5637 98.9913 41.1624Z" fill="var(--fill-0, #151B22)"/>
<path id="Vector_11" d="M60.4427 5.26128C61.0504 5.35684 61.6714 5.20988 62.1714 4.85215C62.6715 4.49442 63.0104 3.95466 63.1149 3.34954C63.2195 2.74441 63.0812 2.12254 62.7301 1.61832C62.3789 1.11411 61.8431 0.768056 61.2384 0.654969C60.6307 0.559401 60.0097 0.706365 59.5097 1.06409C59.0096 1.42182 58.6707 1.96159 58.5662 2.56671C58.4616 3.17183 58.5999 3.79371 58.951 4.29792C59.3021 4.80214 59.838 5.14819 60.4427 5.26128Z" fill="var(--fill-0, #151B22)"/>
<path id="Vector_12" d="M71.1249 8.39249C71.694 8.62469 72.3316 8.62452 72.9006 8.39203C73.4696 8.15955 73.9243 7.71333 74.1669 7.14948C74.4094 6.58563 74.4204 5.94925 74.1975 5.37738C73.9746 4.80552 73.5355 4.34392 72.9749 4.09198C72.4058 3.85978 71.7682 3.85995 71.1992 4.09243C70.6302 4.32492 70.1755 4.77114 69.9329 5.33499C69.6904 5.89884 69.6794 6.53522 69.9023 7.10708C70.1252 7.67895 70.5643 8.14055 71.1249 8.39249Z" fill="var(--fill-0, #151B22)"/>
<path id="Vector_13" d="M49.1769 4.67697C49.4872 4.67178 49.7934 4.60513 50.0776 4.48089C50.3619 4.35664 50.6186 4.17727 50.8328 3.9532C51.0471 3.72912 51.2146 3.4648 51.3256 3.17558C51.4367 2.88636 51.4891 2.578 51.4798 2.2684C51.4704 1.95881 51.3996 1.65414 51.2713 1.3721C51.1431 1.09006 50.96 0.836251 50.7326 0.625419C50.5053 0.414586 50.2383 0.250927 49.947 0.143941C49.6558 0.0369555 49.3462 -0.0112255 49.0362 0.00219706C48.4207 0.0288422 47.8405 0.296328 47.4212 0.746755C47.0019 1.19718 46.7772 1.79431 46.7957 2.40889C46.8142 3.02347 47.0744 3.60605 47.5201 4.03054C47.9657 4.45502 48.561 4.68725 49.1769 4.67697Z" fill="var(--fill-0, #151B22)"/>
<path id="Vector_14" d="M37.6783 6.75645C38.0118 6.75177 38.3405 6.676 38.6423 6.5342C38.9441 6.3924 39.2121 6.18785 39.4282 5.93426C39.6444 5.68067 39.8037 5.3839 39.8956 5.06383C39.9874 4.74376 40.0097 4.4078 39.9609 4.07844C39.912 3.74909 39.7932 3.43396 39.6124 3.15417C39.4316 2.87438 39.1929 2.6364 38.9125 2.45618C38.632 2.27595 38.3162 2.15764 37.9861 2.10917C37.6561 2.06071 37.3195 2.08321 36.9989 2.17517C36.4539 2.3315 35.9843 2.67998 35.6774 3.15585C35.3704 3.63173 35.247 4.20265 35.33 4.76253C35.413 5.3224 35.6969 5.83315 36.1288 6.19989C36.5607 6.56662 37.1113 6.76439 37.6783 6.75645Z" fill="var(--fill-0, #151B22)"/>
<path id="Vector_15" d="M28.4314 94.0588C27.8951 93.7614 27.2631 93.6861 26.6717 93.8493C26.0803 94.0125 25.5768 94.401 25.2697 94.9312C24.9626 95.4614 24.8764 96.0908 25.0298 96.6837C25.1831 97.2767 25.5637 97.7858 26.0896 98.1014C26.626 98.3988 27.2579 98.4741 27.8493 98.3109C28.4407 98.1477 28.9442 97.7592 29.2514 97.229C29.5585 96.6988 29.6447 96.0695 29.4913 95.4765C29.3379 94.8835 28.9573 94.3744 28.4314 94.0588Z" fill="var(--fill-0, #151B22)"/>
<path id="Vector_16" d="M89.1297 83.2828C88.7496 83.762 88.5724 84.3706 88.6358 84.9785C88.6993 85.5864 88.9984 86.1454 89.4693 86.5362C89.9402 86.9269 90.5455 87.1183 91.156 87.0695C91.7664 87.0208 92.3335 86.7357 92.7361 86.2752C93.1162 85.7959 93.2934 85.1874 93.23 84.5795C93.1665 83.9715 92.8674 83.4125 92.3965 83.0218C91.9256 82.6311 91.3202 82.4396 90.7098 82.4884C90.0994 82.5372 89.5323 82.8223 89.1297 83.2828Z" fill="var(--fill-0, #151B22)"/>
<path id="Vector_17" d="M81.0499 90.9027C80.5631 91.2764 80.2426 91.8258 80.1573 92.4328C80.072 93.0398 80.2287 93.656 80.5937 94.1489C80.9586 94.6419 81.5028 94.9722 82.1092 95.069C82.7156 95.1658 83.3359 95.0213 83.8367 94.6666C84.3235 94.2929 84.644 93.7435 84.7293 93.1365C84.8146 92.5295 84.6579 91.9133 84.2929 91.4204C83.928 90.9274 83.3838 90.597 82.7774 90.5002C82.171 90.4034 81.5507 90.5479 81.0499 90.9027Z" fill="var(--fill-0, #151B22)"/>
<path id="Vector_18" d="M97.2096 32.0258C97.5594 32.0216 97.9038 31.9388 98.2172 31.7838C98.5306 31.6287 98.8051 31.4053 99.0203 31.13C99.2355 30.8547 99.3859 30.5346 99.4603 30.1935C99.5348 29.8523 99.5314 29.4988 99.4505 29.1592C99.3695 28.8195 99.2131 28.5023 98.9926 28.2312C98.7722 27.96 98.4936 27.7418 98.1772 27.5928C97.8609 27.4437 97.515 27.3675 97.1652 27.3699C96.8154 27.3724 96.4706 27.4533 96.1564 27.6067C95.6806 27.839 95.2983 28.2259 95.0721 28.7039C94.846 29.1819 94.7896 29.7225 94.9122 30.2367C95.0347 30.7509 95.329 31.2082 95.7465 31.5334C96.1641 31.8585 96.6801 32.0322 97.2096 32.0258Z" fill="var(--fill-0, #151B22)"/>
<path id="Vector_19" d="M102.667 49.8339C102.035 49.8854 101.447 50.1728 101.019 50.6387C100.591 51.1045 100.355 51.7145 100.358 52.3467C100.361 52.9789 100.603 53.5866 101.035 54.0484C101.468 54.5101 102.059 54.7919 102.691 54.8373C103.322 54.7859 103.911 54.4985 104.339 54.0326C104.767 53.5667 105.003 52.9567 105 52.3245C104.997 51.6924 104.755 51.0846 104.322 50.6229C103.89 50.1611 103.298 49.8793 102.667 49.8339Z" fill="var(--fill-0, #151B22)"/>
<path id="Vector_20" d="M98.4025 72.9513C97.8513 72.6868 97.2181 72.6486 96.639 72.8448C96.0599 73.0411 95.581 73.4562 95.3051 74.001C95.0292 74.5457 94.9784 75.1768 95.1635 75.7586C95.3486 76.3403 95.7549 76.8265 96.2952 77.1126C96.8463 77.3771 97.4795 77.4153 98.0586 77.2191C98.6377 77.0228 99.1166 76.6077 99.3925 76.063C99.6684 75.5182 99.7192 74.8871 99.5341 74.3054C99.349 73.7236 98.9427 73.2374 98.4025 72.9513Z" fill="var(--fill-0, #151B22)"/>
<path id="Vector_21" d="M9.04296 78.2815C8.54047 78.6309 8.19538 79.1631 8.08189 79.7637C7.96841 80.3644 8.09559 80.9855 8.43609 81.4935C8.77659 82.0015 9.30322 82.3559 9.90276 82.4805C10.5023 82.605 11.1269 82.4898 11.6422 82.1596C12.1447 81.8102 12.4898 81.278 12.6033 80.6774C12.7168 80.0767 12.5896 79.4556 12.2491 78.9476C11.9086 78.4396 11.3819 78.0852 10.7824 77.9606C10.1829 77.8361 9.55828 77.9513 9.04296 78.2815Z" fill="var(--fill-0, #151B22)"/>
<path id="Vector_22" d="M101.871 61.8014C101.269 61.6722 100.641 61.7844 100.121 62.1139C99.6014 62.4433 99.2325 62.9636 99.094 63.5623C98.9556 64.161 99.0587 64.7899 99.381 65.3134C99.7033 65.8368 100.219 66.2127 100.817 66.3598C101.419 66.489 102.047 66.3768 102.567 66.0473C103.086 65.7179 103.455 65.1976 103.594 64.5989C103.732 64.0002 103.629 63.3713 103.307 62.8478C102.984 62.3244 102.469 61.9485 101.871 61.8014Z" fill="var(--fill-0, #151B22)"/>
<path id="Vector_23" d="M16.1859 87.5379C15.7745 87.9896 15.5571 88.5844 15.5804 89.1944C15.6038 89.8045 15.8659 90.381 16.3106 90.8002C16.7553 91.2193 17.347 91.4476 17.9585 91.436C18.57 91.4243 19.1526 91.1737 19.5809 90.738C19.9923 90.2862 20.2097 89.6914 20.1864 89.0814C20.163 88.4713 19.9009 87.8948 19.4562 87.4757C19.0115 87.0565 18.4198 86.8282 17.8083 86.8398C17.1968 86.8515 16.6142 87.1021 16.1859 87.5379Z" fill="var(--fill-0, #151B22)"/>
<path id="Vector_24" d="M38.6635 98.4276C38.0724 98.2676 37.442 98.3447 36.907 98.6425C36.3721 98.9403 35.9751 99.435 35.8008 100.021C35.6266 100.607 35.6889 101.238 35.9745 101.779C36.2601 102.32 36.7463 102.728 37.3292 102.915C37.9204 103.075 38.5508 102.998 39.0857 102.7C39.6206 102.403 40.0177 101.908 40.1919 101.322C40.3662 100.736 40.3039 100.105 40.0183 99.564C39.7327 99.0232 39.2464 98.6154 38.6635 98.4276Z" fill="var(--fill-0, #151B22)"/>
<path id="Vector_25" d="M49.627 100.346C49.0158 100.323 48.4202 100.541 47.9683 100.953C47.5164 101.364 47.2444 101.936 47.2107 102.546C47.177 103.155 47.3843 103.754 47.7881 104.212C48.1918 104.671 48.7598 104.953 49.3698 104.998C49.981 105.02 50.5766 104.802 51.0285 104.391C51.4803 103.979 51.7524 103.407 51.7861 102.798C51.8198 102.188 51.6125 101.59 51.2087 101.131C50.8049 100.673 50.237 100.391 49.627 100.346Z" fill="var(--fill-0, #151B22)"/>
<path id="Vector_26" d="M71.4031 96.4874C70.846 96.7427 70.4116 97.2061 70.1933 97.7779C69.9751 98.3496 69.9904 98.9841 70.2361 99.5446C70.4817 100.105 70.938 100.547 71.5068 100.775C72.0756 101.004 72.7114 101 73.2774 100.765C73.8345 100.51 74.2689 100.046 74.4872 99.4744C74.7054 98.9027 74.6901 98.2682 74.4444 97.7077C74.1988 97.1471 73.7425 96.7051 73.1737 96.4769C72.6049 96.2487 71.9691 96.2525 71.4031 96.4874Z" fill="var(--fill-0, #151B22)"/>
<path id="Vector_27" d="M60.7502 99.6681V99.6909C60.1446 99.8027 59.608 100.149 59.2574 100.654C58.9069 101.16 58.7709 101.783 58.8792 102.388C58.9875 102.993 59.3312 103.531 59.8354 103.884C60.3396 104.237 60.9632 104.377 61.5701 104.272V104.297C62.1757 104.179 62.7106 103.828 63.0596 103.32C63.4087 102.812 63.5441 102.188 63.4367 101.581C63.3292 100.974 62.9876 100.434 62.4852 100.076C61.9828 99.7187 61.3598 99.5721 60.7502 99.6681Z" fill="var(--fill-0, #151B22)"/>
<path id="Vector_28" d="M51.3507 14.9189C41.3682 14.9302 31.7977 18.8932 24.739 25.9385C17.6802 32.9839 13.7097 42.5361 13.6983 52.4997C15.7668 102.355 86.9409 102.342 89.0021 52.4994C88.9907 42.536 85.0203 32.984 77.9618 25.9388C70.9033 18.8935 61.3331 14.9305 51.3507 14.9189ZM51.3507 85.4057C42.6099 85.3958 34.23 81.9257 28.0493 75.7568C21.8686 69.5879 18.3919 61.2239 18.382 52.4997C20.193 8.84604 82.5137 8.85757 84.3184 52.4999C84.3085 61.2239 80.832 69.5877 74.6515 75.7566C68.471 81.9254 60.0913 85.3956 51.3507 85.4057Z" fill="var(--fill-0, #151B22)"/>
<path id="Vector_29" d="M51.3504 29.5504C45.2544 29.5571 39.4099 31.9771 35.0993 36.2795C30.7888 40.5819 28.3641 46.4152 28.3574 52.4997C29.6196 82.9451 73.0858 82.9363 74.3435 52.4995C74.3367 46.4151 71.912 40.5818 67.6015 36.2794C63.2909 31.9771 57.4465 29.5571 51.3504 29.5504ZM51.3504 70.7742C46.4961 70.7689 41.8421 68.8418 38.4096 65.4158C34.9771 61.9899 33.0464 57.3448 33.0411 52.4997C33.7054 29.6948 66.0023 27.7667 69.4927 50.1623H45.8171C45.196 50.1623 44.6004 50.4086 44.1612 50.8469C43.722 51.2852 43.4753 51.8798 43.4753 52.4997C43.4753 53.1196 43.722 53.7141 44.1612 54.1525C44.6004 54.5908 45.196 54.8371 45.8171 54.8371H69.4927C68.9209 59.2384 66.7652 63.282 63.4273 66.2142C60.0893 69.1464 55.797 70.7671 51.3504 70.7742Z" fill="var(--fill-0, #151B22)"/>
</g>
</svg>
